<?xml version="1.0" encoding="utf-8"?>
<!-- Generator: Adobe Illustrator 28.2.0, SVG Export Plug-In . SVG Version: 6.00 Build 0)  -->
<svg version="1.1" id="Layer_1" xmlns="http://www.w3.org/2000/svg" xmlns:xlink="http://www.w3.org/1999/xlink" x="0px" y="0px"
	 viewBox="0 0 1000 712.81" style="enable-background:new 0 0 1000 712.81;" xml:space="preserve">
<style type="text/css">
	.st0{fill:#1D2B45;}
</style>
<g>
	<g>
		<g>
			<path class="st0" d="M68.04,30.04v128.54H38.36V30.04H68.04z"/>
			<path class="st0" d="M96.75,158.59V30.04h25.82l69.76,82.87V30.04h29.68v128.54H196.2l-69.76-83.25v83.25H96.75z"/>
			<path class="st0" d="M295.25,55.1v103.49h-29.68V55.1h-27.94V30.04h85.57V55.1H295.25z"/>
			<path class="st0" d="M411.45,55.1h-42.98v24.86h40.86v25.05h-40.86v28.52h42.98v25.05H338.8V30.04h72.65V55.1z"/>
			<path class="st0" d="M497.4,88.44h63.79v1.35c0,15.61-5.59,39.31-19.85,54.15c-14.26,14.84-30.64,17.54-45.87,17.54
				c-15.42,0-31.99-2.51-47.02-17.92c-7.52-7.71-18.89-23.32-18.89-48.95c0-21.01,7.71-37.77,18.5-48.76
				c15.8-16.38,35.27-18.69,50.49-18.69c10.6,0,24.09,1.73,36.04,9.64c8.67,5.78,16.19,14.84,20.82,22.93l-26.79,14.45
				c-2.5-5.01-6.36-10.21-11.37-13.88c-5.78-4.24-12.33-6.17-19.66-6.17c-11.75,0-20.43,3.85-26.59,10.41
				c-7.13,7.52-10.99,18.5-10.99,30.45c0,14.65,5.4,24.09,10.79,29.49c7.52,7.71,16.19,10.02,26.02,10.02
				c12.72,0,19.46-4.43,22.36-6.94c0.96-0.77,6.74-5.78,9.25-15.22H497.4V88.44z"/>
			<path class="st0" d="M628.44,30.04c16.38,0,26.59,5.4,32.76,11.18c5.4,5.2,11.18,14.45,11.18,28.71
				c0,8.09-1.74,18.12-10.02,26.21c-4.43,4.24-10.79,8.09-17.92,9.83l39.51,52.61h-36.23l-34.69-50.68v50.68h-29.68V30.04H628.44z
				 M613.02,88.44h6.74c5.4,0,12.72-0.58,17.73-5.59c2.12-2.12,4.82-6.17,4.82-12.53c0-7.32-3.47-11.18-5.97-13.1
				c-4.82-3.66-12.53-4.05-16.38-4.05h-6.94V88.44z"/>
			<path class="st0" d="M730.58,30.04v128.54H700.9V30.04H730.58z"/>
			<path class="st0" d="M804.39,55.1v103.49h-29.68V55.1h-27.95V30.04h85.57V55.1H804.39z"/>
			<path class="st0" d="M885.9,98.65l-46.06-68.61h35.08l25.82,39.89l25.82-39.89h35.08l-46.06,68.61v59.93H885.9V98.65z"/>
		</g>
		<g>
			<path class="st0" d="M106.41,596.85c-8.55-7.7-15.91-8.21-19.16-8.21c-3.59,0-8.04,0.51-11.12,3.94
				c-1.71,1.71-2.91,4.28-2.91,7.19c0,2.74,0.86,4.79,2.57,6.33c2.74,2.56,6.67,3.59,14.37,6.5l8.56,3.25
				c4.96,1.88,11.12,4.45,15.57,8.72c6.67,6.33,8.38,14.54,8.38,21.22c0,11.81-4.11,22.07-10.1,28.23
				c-10.1,10.61-24.81,11.64-32.34,11.64c-8.21,0-15.4-1.2-22.59-4.79c-5.82-2.91-12.49-8.21-16.77-12.49l13.69-18.82
				c2.91,2.91,7.53,6.84,10.61,8.73c4.45,2.74,9.07,4.11,14.37,4.11c3.42,0,8.21-0.68,11.98-3.94c2.22-1.88,4.11-4.96,4.11-9.24
				c0-3.76-1.54-6.16-3.94-8.21c-3.08-2.57-10.1-5.13-13.35-6.33l-9.41-3.25c-5.3-1.88-11.46-4.28-15.91-9.07
				c-5.99-6.33-6.84-14.37-6.84-19.85c0-10.09,3.08-18.65,9.92-25.66c8.04-8.21,17.62-10.44,28.23-10.44
				c7.87,0,20.53,1.37,33.88,11.29L106.41,596.85z"/>
			<path class="st0" d="M242.77,582.99c10.78,10.44,17.8,25.49,17.8,43.12c0,15.23-5.48,30.8-17.8,42.77
				c-10.61,10.27-24.98,16.77-44.14,16.77c-21.39,0-35.93-8.56-44.49-16.77c-10.95-10.27-17.8-25.66-17.8-42.43
				c0-16.43,7.36-33.02,17.62-43.29c7.7-7.7,21.9-16.77,44.66-16.77C216.42,566.4,231.31,571.87,242.77,582.99z M173.47,600.45
				c-4.96,4.79-10.09,13.17-10.09,25.84c0,10.44,3.42,18.82,10.44,25.67c7.36,7.02,15.57,9.41,24.47,9.41
				c11.63,0,19.85-4.28,25.32-9.75c4.45-4.28,9.92-12.32,9.92-25.49c0-11.81-4.79-20.53-9.92-25.67
				c-5.65-5.48-14.72-9.75-25.15-9.75C188.53,590.69,179.63,594.29,173.47,600.45z"/>
			<path class="st0" d="M306.59,568.96v91.88h35.42v22.24h-61.77V568.96H306.59z"/>
			<path class="st0" d="M453.39,636.55c0,10.95-1.37,24.47-12.66,36.1c-10.95,11.29-23.61,13-35.59,13c-11.98,0-24.64-1.71-35.59-13
				c-11.29-11.64-12.66-25.15-12.66-36.1v-67.58h26.35v66.9c0,4.96,0.34,13.35,5.99,19.16c4.62,4.96,10.95,5.99,15.91,5.99
				c4.96,0,11.29-1.03,15.91-5.99c5.65-5.82,5.99-14.2,5.99-19.16v-66.9h26.35V636.55z"/>
			<path class="st0" d="M518.41,591.21v91.88h-26.35v-91.88h-24.81v-22.24h75.97v22.24H518.41z"/>
			<path class="st0" d="M583.93,568.96v114.12h-26.35V568.96H583.93z"/>
			<path class="st0" d="M710.55,582.99c10.78,10.44,17.8,25.49,17.8,43.12c0,15.23-5.48,30.8-17.8,42.77
				c-10.61,10.27-24.98,16.77-44.14,16.77c-21.39,0-35.93-8.56-44.49-16.77c-10.95-10.27-17.8-25.66-17.8-42.43
				c0-16.43,7.36-33.02,17.62-43.29c7.7-7.7,21.9-16.77,44.66-16.77C684.2,566.4,699.08,571.87,710.55,582.99z M641.25,600.45
				c-4.96,4.79-10.09,13.17-10.09,25.84c0,10.44,3.42,18.82,10.44,25.67c7.36,7.02,15.57,9.41,24.47,9.41
				c11.64,0,19.85-4.28,25.32-9.75c4.45-4.28,9.92-12.32,9.92-25.49c0-11.81-4.79-20.53-9.92-25.67
				c-5.65-5.48-14.72-9.75-25.15-9.75C656.31,590.69,647.41,594.29,641.25,600.45z"/>
			<path class="st0" d="M748.01,683.09V568.96h22.93l61.94,73.57v-73.57h26.35v114.12H836.3l-61.94-73.92v73.92H748.01z"/>
			<path class="st0" d="M943.07,596.85c-8.56-7.7-15.91-8.21-19.16-8.21c-3.59,0-8.04,0.51-11.12,3.94
				c-1.71,1.71-2.91,4.28-2.91,7.19c0,2.74,0.86,4.79,2.57,6.33c2.74,2.56,6.67,3.59,14.37,6.5l8.56,3.25
				c4.96,1.88,11.12,4.45,15.57,8.72c6.67,6.33,8.38,14.54,8.38,21.22c0,11.81-4.11,22.07-10.09,28.23
				c-10.1,10.61-24.81,11.64-32.34,11.64c-8.21,0-15.4-1.2-22.59-4.79c-5.82-2.91-12.49-8.21-16.77-12.49l13.69-18.82
				c2.91,2.91,7.53,6.84,10.61,8.73c4.45,2.74,9.07,4.11,14.37,4.11c3.42,0,8.21-0.68,11.98-3.94c2.23-1.88,4.11-4.96,4.11-9.24
				c0-3.76-1.54-6.16-3.93-8.21c-3.08-2.57-10.09-5.13-13.35-6.33l-9.41-3.25c-5.3-1.88-11.46-4.28-15.91-9.07
				c-5.99-6.33-6.84-14.37-6.84-19.85c0-10.09,3.08-18.65,9.92-25.66c8.04-8.21,17.62-10.44,28.23-10.44
				c7.87,0,20.53,1.37,33.88,11.29L943.07,596.85z"/>
		</g>
		<g>
			<path class="st0" d="M108.57,315.34v122.38h-35.1V315.34H40.43v-29.63h101.19v29.63H108.57z"/>
			<path class="st0" d="M290.21,304.4c14.36,13.9,23.7,33.96,23.7,57.43c0,20.28-7.29,41.02-23.7,56.97
				c-14.13,13.68-33.27,22.34-58.8,22.34c-28.49,0-47.86-11.4-59.25-22.34c-14.59-13.67-23.7-34.18-23.7-56.52
				c0-21.88,9.8-43.98,23.47-57.66c10.26-10.26,29.17-22.33,59.48-22.33C255.11,282.29,274.94,289.59,290.21,304.4z M197.91,327.65
				c-6.61,6.38-13.45,17.55-13.45,34.41c0,13.9,4.56,25.07,13.9,34.18c9.8,9.34,20.74,12.53,32.59,12.53
				c15.5,0,26.44-5.7,33.73-12.99c5.93-5.7,13.22-16.41,13.22-33.96c0-15.72-6.38-27.35-13.22-34.18
				c-7.52-7.29-19.6-12.99-33.5-12.99C217.97,314.66,206.12,319.44,197.91,327.65z"/>
			<path class="st0" d="M354.26,285.71l32.36,100.73l32.36-100.73h24.16l32.36,100.73l32.36-100.73h36.46l-51.73,152.01h-29.63
				l-31.9-92.3l-31.91,92.3h-29.63L317.8,285.71H354.26z"/>
			<path class="st0" d="M597.66,285.71v152.01h-35.1V285.71H597.66z"/>
			<path class="st0" d="M631.62,437.72V285.71h30.54l82.5,98v-98h35.1v152.01h-30.54l-82.5-98.45v98.45H631.62z"/>
			<path class="st0" d="M886.19,354.77h75.43v1.59c0,18.46-6.61,46.49-23.47,64.04c-16.86,17.55-36.24,20.74-54.24,20.74
				c-18.23,0-37.83-2.96-55.61-21.2c-8.89-9.11-22.33-27.57-22.33-57.88c0-24.84,9.11-44.67,21.88-57.66
				c18.69-19.37,41.7-22.11,59.71-22.11c12.53,0,28.49,2.05,42.62,11.4c10.26,6.84,19.14,17.55,24.61,27.12l-31.68,17.09
				c-2.96-5.93-7.52-12.08-13.45-16.41c-6.84-5.01-14.59-7.29-23.25-7.29c-13.9,0-24.16,4.56-31.45,12.31
				c-8.43,8.89-12.99,21.88-12.99,36.01c0,17.32,6.38,28.49,12.76,34.87c8.89,9.11,19.14,11.85,30.77,11.85
				c15.04,0,23.02-5.24,26.44-8.2c1.14-0.91,7.98-6.84,10.94-18h-36.69V354.77z"/>
		</g>
		<g>
			<rect x="38.6" y="480.14" class="st0" width="127.95" height="41.75"/>
		</g>
		<g>
			<rect x="236.79" y="480.14" class="st0" width="127.95" height="41.75"/>
		</g>
		<g>
			<rect x="434.98" y="480.14" class="st0" width="127.95" height="41.75"/>
		</g>
		<g>
			<rect x="633.18" y="480.14" class="st0" width="127.95" height="41.75"/>
		</g>
		<g>
			<rect x="831.37" y="480.14" class="st0" width="127.95" height="41.75"/>
		</g>
		<g>
			<rect x="38.6" y="199.7" class="st0" width="127.95" height="41.75"/>
		</g>
		<g>
			<rect x="236.79" y="199.7" class="st0" width="127.95" height="41.75"/>
		</g>
		<g>
			<rect x="434.98" y="199.7" class="st0" width="127.95" height="41.75"/>
		</g>
		<g>
			<rect x="633.18" y="199.7" class="st0" width="127.95" height="41.75"/>
		</g>
		<g>
			<rect x="831.37" y="199.7" class="st0" width="127.95" height="41.75"/>
		</g>
	</g>
</g>
</svg>
